<svg width="2929" height="477" xmlns="http://www.w3.org/2000/svg" xmlns:xlink="http://www.w3.org/1999/xlink" xml:space="preserve" overflow="hidden"><defs><clipPath id="clip0"><rect x="703" y="999" width="2929" height="477"/></clipPath></defs><g clip-path="url(#clip0)" transform="translate(-703 -999)"><path d="M3010.25 1144.08 2953.51 1277.81 3077.87 1277.81 3021.13 1144.08ZM2047.95 1144.08 1991.22 1277.81 2115.58 1277.81 2058.84 1144.08ZM3445.96 1123.98 3469.02 1123.98 3469.02 1252.7 3587.13 1123.98 3617.81 1123.98C3612.16 1128.55 3605.43 1134.81 3597.6 1142.76 3589.78 1150.71 3579.79 1161.29 3567.64 1174.52 3555.49 1187.74 3540.1 1204.56 3521.47 1224.98 3546.01 1254.34 3565.75 1277.98 3580.7 1295.88 3595.66 1313.78 3607.09 1327.31 3615 1336.48 3622.92 1345.66 3628.58 1351.83 3632 1355.02L3601.65 1355.02 3504.98 1240.16 3469.02 1279.11 3469.02 1355.02 3445.96 1355.02C3446.29 1352.95 3446.55 1346.3 3446.74 1335.04 3446.94 1323.79 3447.08 1309.75 3447.16 1292.92 3447.24 1276.09 3447.28 1258.28 3447.28 1239.5 3447.28 1220.72 3447.24 1202.91 3447.16 1186.08 3447.08 1169.25 3446.94 1155.21 3446.74 1143.96 3446.55 1132.7 3446.29 1126.04 3445.96 1123.98ZM2995.07 1123.98 3036.3 1123.98C3036.88 1126.04 3039.51 1132.7 3044.19 1143.95 3048.86 1155.2 3054.79 1169.24 3061.96 1186.07 3069.13 1202.9 3076.74 1220.72 3084.8 1239.51 3092.84 1258.29 3100.51 1276.09 3107.81 1292.92 3115.12 1309.75 3121.33 1323.79 3126.43 1335.04 3131.54 1346.3 3134.81 1352.95 3136.26 1355.02L3110.53 1355.02 3086.12 1297.58 2945.26 1297.58 2920.85 1355.02 2895.12 1355.02C2896.56 1352.95 2899.84 1346.3 2904.94 1335.04 2910.05 1323.79 2916.26 1309.75 2923.56 1292.92 2930.87 1276.09 2938.54 1258.29 2946.58 1239.51 2954.63 1220.72 2962.24 1202.9 2969.41 1186.07 2976.59 1169.24 2982.51 1155.2 2987.19 1143.95 2991.87 1132.7 2994.5 1126.04 2995.07 1123.98ZM2641.76 1123.98 2664.82 1123.98 2664.82 1230.94 2829.16 1230.94 2829.16 1123.98 2852.22 1123.98C2851.78 1126.05 2851.47 1132.7 2851.29 1143.96 2851.1 1155.22 2850.98 1169.26 2850.94 1186.09 2850.9 1202.92 2850.89 1220.72 2850.9 1239.5 2850.89 1258.28 2850.9 1276.09 2850.94 1292.91 2850.98 1309.74 2851.1 1323.78 2851.29 1335.04 2851.47 1346.29 2851.78 1352.95 2852.22 1355.02L2829.16 1355.02 2829.16 1250.7 2664.82 1250.7 2664.82 1355.02 2641.76 1355.02C2642.09 1352.95 2642.35 1346.29 2642.54 1335.04 2642.74 1323.78 2642.88 1309.74 2642.96 1292.91 2643.04 1276.09 2643.08 1258.28 2643.08 1239.5 2643.08 1220.72 2643.04 1202.92 2642.96 1186.09 2642.88 1169.26 2642.74 1155.22 2642.54 1143.96 2642.35 1132.7 2642.09 1126.05 2641.76 1123.98ZM2428.68 1123.98 2451.74 1123.98 2451.74 1334.92 2590.97 1334.92 2591.3 1355.02 2428.68 1355.02C2429.01 1352.96 2429.27 1346.3 2429.47 1335.05 2429.66 1323.8 2429.8 1309.77 2429.88 1292.94 2429.96 1276.11 2430.01 1258.31 2430 1239.52 2430.01 1220.73 2429.96 1202.92 2429.88 1186.09 2429.8 1169.26 2429.66 1155.22 2429.47 1143.96 2429.27 1132.7 2429.01 1126.04 2428.68 1123.98ZM2215.6 1123.98 2238.66 1123.98 2238.66 1334.92 2377.89 1334.92 2378.22 1355.02 2215.6 1355.02C2215.93 1352.96 2216.19 1346.3 2216.39 1335.05 2216.58 1323.8 2216.72 1309.77 2216.8 1292.94 2216.89 1276.11 2216.93 1258.31 2216.92 1239.52 2216.93 1220.73 2216.89 1202.92 2216.8 1186.09 2216.72 1169.26 2216.58 1155.22 2216.39 1143.96 2216.19 1132.7 2215.93 1126.04 2215.6 1123.98ZM2032.78 1123.98 2074.01 1123.98C2074.59 1126.04 2077.22 1132.7 2081.9 1143.95 2086.57 1155.2 2092.5 1169.24 2099.67 1186.07 2106.84 1202.9 2114.45 1220.72 2122.51 1239.51 2130.54 1258.29 2138.22 1276.09 2145.52 1292.92 2152.83 1309.75 2159.04 1323.79 2164.14 1335.04 2169.25 1346.3 2172.52 1352.95 2173.97 1355.02L2148.24 1355.02 2123.83 1297.58 1982.97 1297.58 1958.56 1355.02 1932.83 1355.02C1934.27 1352.95 1937.54 1346.3 1942.65 1335.04 1947.76 1323.79 1953.97 1309.75 1961.27 1292.92 1968.58 1276.09 1976.25 1258.29 1984.29 1239.51 1992.34 1220.72 1999.95 1202.9 2007.12 1186.07 2014.3 1169.24 2020.22 1155.2 2024.9 1143.95 2029.58 1132.7 2032.21 1126.04 2032.78 1123.98ZM1561 1123.98 1586.07 1123.98 1662.28 1337.23 1723.3 1171.85 1705.82 1123.98 1730.89 1123.98 1806.44 1336.9 1882.97 1123.98 1908.04 1123.98C1907.05 1125.53 1903.5 1134.03 1897.39 1149.49 1891.28 1164.94 1881.96 1189.31 1869.43 1222.59 1856.91 1255.86 1840.53 1300.01 1820.29 1355.02L1790.6 1355.02 1734.19 1200.9 1676.13 1355.02 1646.44 1355.02C1626.44 1300.01 1610.36 1255.86 1598.19 1222.59 1586.02 1189.31 1577.03 1164.94 1571.2 1149.49 1565.38 1134.03 1561.98 1125.53 1561 1123.98ZM3285.1 1121.01C3320.32 1120.84 3346.98 1126.62 3365.06 1138.36 3383.15 1150.11 3392.23 1168.85 3392.31 1194.59L3392.31 1203.18 3370.9 1203.18 3370.9 1195.26C3370.9 1175.09 3363.73 1160.94 3349.41 1152.83 3335.09 1144.71 3313.65 1140.8 3285.1 1141.11 3255.75 1141.04 3232.7 1147.61 3215.97 1160.83 3199.23 1174.06 3190.71 1194.33 3190.39 1221.67L3190.39 1257.33C3190.83 1284.95 3199.6 1305.31 3216.71 1318.41 3233.81 1331.51 3256.61 1338 3285.1 1337.89 3315.11 1337.91 3337.02 1333.17 3350.81 1323.69 3364.61 1314.22 3371.42 1299.91 3371.23 1280.77L3371.23 1271.53 3392.97 1271.53 3392.97 1281.43C3393.09 1306.29 3384.36 1325.24 3366.75 1338.28 3349.15 1351.32 3321.94 1357.89 3285.1 1357.99 3245.68 1358.39 3216.13 1349.34 3196.48 1330.81 3176.82 1312.29 3167 1281.85 3167.01 1239.5 3167 1197.29 3176.82 1166.9 3196.48 1148.31 3216.13 1129.72 3245.68 1120.62 3285.1 1121.01Z" fill="#FFFFFF" fill-rule="evenodd"/><path d="M901 1210.83 778.427 999 703 999 863.288 1276Z" fill="#FFFFFF" fill-rule="evenodd"/><path d="M1139 999 1063.68 999C971.79 1158 879.894 1317 788 1476L863.315 1476C955.21 1317 1047.1 1158 1139 999" fill="#FFFFFF" fill-rule="evenodd"/><path d="M1074 1182.38 1074 1458.54 1074 1476 1139.05 1476 1139.05 1476 1414 999 1338.88 999 1139.05 1345.69 1139.05 1069.52Z" fill="#FFFFFF" fill-rule="evenodd"/></g></svg>